<?xml version="1.0" encoding="UTF-8" standalone="no"?>
<!-- Generator: Adobe Illustrator 19.1.0, SVG Export Plug-In . SVG Version: 6.00 Build 0)  -->

<svg
   xmlns:dc="http://purl.org/dc/elements/1.1/"
   xmlns:cc="http://creativecommons.org/ns#"
   xmlns:rdf="http://www.w3.org/1999/02/22-rdf-syntax-ns#"
   xmlns:svg="http://www.w3.org/2000/svg"
   xmlns="http://www.w3.org/2000/svg"
   xmlns:sodipodi="http://sodipodi.sourceforge.net/DTD/sodipodi-0.dtd"
   xmlns:inkscape="http://www.inkscape.org/namespaces/inkscape"
   version="1.1"
   id="Layer_1"
   x="0px"
   y="0px"
   viewBox="0 0 179.59495 28.40134"
   xml:space="preserve"
   inkscape:version="0.91 r13725"
   sodipodi:docname="geeklogo2.svg"
   width="179.59496"
   height="28.40134"><metadata
     id="metadata33"><rdf:RDF><cc:Work
         rdf:about=""><dc:format>image/svg+xml</dc:format><dc:type
           rdf:resource="http://purl.org/dc/dcmitype/StillImage" /><dc:title></dc:title></cc:Work></rdf:RDF></metadata><defs
     id="defs31" /><sodipodi:namedview
     pagecolor="#ffffff"
     bordercolor="#666666"
     borderopacity="1"
     objecttolerance="10"
     gridtolerance="10"
     guidetolerance="10"
     inkscape:pageopacity="0"
     inkscape:pageshadow="2"
     inkscape:window-width="1785"
     inkscape:window-height="480"
     id="namedview29"
     showgrid="false"
     fit-margin-top="0"
     fit-margin-left="0"
     fit-margin-right="0"
     fit-margin-bottom="0"
     inkscape:zoom="2.5084174"
     inkscape:cx="57.006715"
     inkscape:cy="14.80402"
     inkscape:window-x="10"
     inkscape:window-y="34"
     inkscape:window-maximized="0"
     inkscape:current-layer="text3368" /><style
     type="text/css"
     id="style3">
	.st0{fill:#40A878;}
	.st1{fill:#61FFB6;}
	.st2{fill:#FFFFFF;}
</style><g
     inkscape:groupmode="layer"
     id="layer1"
     inkscape:label="Layer 1"
     transform="translate(-2.3932864,-2.4026789)" /><g
     transform="scale(0.7303152,1.3692718)"
     style="font-style:normal;font-weight:normal;font-size:28.80823708px;line-height:125%;font-family:sans-serif;letter-spacing:0px;word-spacing:0px;fill:#ffffff;fill-opacity:1;stroke:none;stroke-width:1px;stroke-linecap:butt;stroke-linejoin:miter;stroke-opacity:1"
     id="text3368"><path
       d="m 18.149189,19.589601 q 0,0.48974 -0.345698,0.835438 Q 17.4866,20.74193 16.99686,20.74193 l -15.8445305,0 q -0.48974004,0 -0.83543888,-0.316891 Q 0,20.079341 0,19.589601 L 0,1.1523288 Q 0,0.66258877 0.31689062,0.34569816 0.66258946,-6.8664551e-7 1.1523295,-6.8664551e-7 l 14.6922005,0 q 0.950672,0 1.613262,0.69139768664551 0.691397,0.6625895 0.691397,1.6132613 l 0,3.4569884 q 0,0.4897401 -0.345698,0.8354389 Q 17.4866,6.9139762 16.99686,6.9139762 l -2.304659,0 q -0.48974,0 -0.835439,-0.3168906 -0.316891,-0.3456988 -0.316891,-0.8354389 l 0,-2.3046589 q 0,-0.4897401 -0.345698,-0.8066307 -0.316891,-0.3456988 -0.806631,-0.3456988 l -4.3212356,0 q -0.48974,0 -0.8354389,0.3456988 -0.3168906,0.3168906 -0.3168906,0.8066307 l 0,13.8279542 q 0,0.48974 0.3168906,0.835438 0.3456989,0.316891 0.8354389,0.316891 l 4.3212356,0 q 0.48974,0 0.806631,-0.316891 0.345698,-0.345698 0.345698,-0.835438 l 0,-4.609318 q 0,-0.48974 -0.345698,-0.806631 -0.316891,-0.345699 -0.806631,-0.345699 l -3.1689061,0 q -0.4897401,0 -0.8354389,-0.31689 -0.3168906,-0.345699 -0.3168906,-0.835439 0,-0.4897404 0.3168906,-0.806631 0.3456988,-0.3456988 0.8354389,-0.3456988 l 6.6258941,0 q 0.950672,0 1.613262,0.6913977 0.691397,0.6625891 0.691397,1.6132611 l 0,8.066307 z"
       style="font-style:normal;font-variant:normal;font-weight:normal;font-stretch:normal;font-family:'Black Wolf';-inkscape-font-specification:'Black Wolf';fill:#ffffff"
       id="path3373" /><path
       d="m 38.011118,19.589601 q 0,0.48974 -0.345699,0.835438 -0.31689,0.316891 -0.80663,0.316891 l -15.844531,0 q -0.48974,0 -0.835438,-0.316891 -0.316891,-0.345698 -0.316891,-0.835438 l 0,-18.4372722 q 0,-0.48974003 0.316891,-0.80663064 Q 20.524518,-6.8664551e-7 21.014258,-6.8664551e-7 l 15.844531,0 q 0.48974,0 0.80663,0.34569884664551 0.345699,0.31689061 0.345699,0.80663064 0,0.48974 -0.345699,0.8354389 -0.31689,0.3168906 -0.80663,0.3168906 l -8.930554,0 q -0.48974,0 -0.835439,0.3456988 -0.31689,0.3168906 -0.31689,0.8066307 l 0,4.6093179 q 0,0.48974 0.31689,0.8354389 0.345699,0.3168906 0.835439,0.3168906 l 4.321236,0 q 0.48974,0 0.806631,0.3456988 0.345698,0.3168906 0.345698,0.806631 0,0.48974 -0.345698,0.835439 -0.316891,0.31689 -0.806631,0.31689 l -4.321236,0 q -0.48974,0 -0.835439,0.345699 -0.31689,0.316891 -0.31689,0.806631 l 0,4.609318 q 0,0.48974 0.31689,0.835438 0.345699,0.316891 0.835439,0.316891 l 8.930554,0 q 0.48974,0 0.80663,0.345699 0.345699,0.31689 0.345699,0.806631 z"
       style="font-style:normal;font-variant:normal;font-weight:normal;font-stretch:normal;font-family:'Black Wolf';-inkscape-font-specification:'Black Wolf';fill:#ffffff"
       id="path3375" /><path
       d="m 57.873047,19.589601 q 0,0.48974 -0.345699,0.835438 -0.31689,0.316891 -0.80663,0.316891 l -15.844531,0 q -0.48974,0 -0.835439,-0.316891 -0.31689,-0.345698 -0.31689,-0.835438 l 0,-18.4372722 q 0,-0.48974003 0.31689,-0.80663064 Q 40.386447,-6.8664551e-7 40.876187,-6.8664551e-7 l 15.844531,0 q 0.48974,0 0.80663,0.34569884664551 0.345699,0.31689061 0.345699,0.80663064 0,0.48974 -0.345699,0.8354389 -0.31689,0.3168906 -0.80663,0.3168906 l -8.930554,0 q -0.48974,0 -0.835439,0.3456988 -0.31689,0.3168906 -0.31689,0.8066307 l 0,4.6093179 q 0,0.48974 0.31689,0.8354389 0.345699,0.3168906 0.835439,0.3168906 l 4.321236,0 q 0.48974,0 0.80663,0.3456988 0.345699,0.3168906 0.345699,0.806631 0,0.48974 -0.345699,0.835439 -0.31689,0.31689 -0.80663,0.31689 l -4.321236,0 q -0.48974,0 -0.835439,0.345699 -0.31689,0.316891 -0.31689,0.806631 l 0,4.609318 q 0,0.48974 0.31689,0.835438 0.345699,0.316891 0.835439,0.316891 l 8.930554,0 q 0.48974,0 0.80663,0.345699 0.345699,0.31689 0.345699,0.806631 z"
       style="font-style:normal;font-variant:normal;font-weight:normal;font-stretch:normal;font-family:'Black Wolf';-inkscape-font-specification:'Black Wolf';fill:#ffffff"
       id="path3377" /><path
       d="m 77.734974,19.589601 q 0.02881,0.115232 0.02881,0.201657 0,0.374507 -0.374508,0.66259 -0.374507,0.288082 -0.80663,0.288082 l -2.304659,0 q -0.777823,0 -1.15233,-1.152329 l -2.304659,-6.913977 q -0.374507,-1.15233 -1.152329,-1.15233 l -2.016577,0 q -0.48974,0 -0.835439,0.345699 -0.31689,0.316891 -0.31689,0.806631 l 0,6.913977 q 0,0.48974 -0.345699,0.835438 -0.316891,0.316891 -0.806631,0.316891 l -4.609318,0 q -0.48974,0 -0.835438,-0.316891 -0.316891,-0.345698 -0.316891,-0.835438 l 0,-18.4372722 q 0,-0.48974003 0.316891,-0.80663064 Q 60.248374,-6.8664551e-7 60.738114,-6.8664551e-7 l 4.609318,0 q 0.48974,0 0.806631,0.34569884664551 0.345699,0.31689061 0.345699,0.80663064 l 0,6.9139769 q 0,0.48974 0.31689,0.8354389 0.345699,0.3168906 0.835439,0.3168906 l 2.016577,0 q 0.777822,0 1.152329,-1.1523295 L 73.125656,1.1523288 Q 73.500163,-6.8664551e-7 74.277986,-6.8664551e-7 l 2.304659,0 q 0.432123,0 0.80663,0.28808236664551 0.374508,0.28808237 0.374508,0.66258946 0,0.0864247 -0.02881,0.20165766 L 75.027,9.2186352 q -0.345699,1.0370968 -0.316891,1.1523298 -0.02881,0.115233 0.316891,1.152329 l 2.707974,8.066307 z"
       style="font-style:normal;font-variant:normal;font-weight:normal;font-stretch:normal;font-family:'Black Wolf';-inkscape-font-specification:'Black Wolf';fill:#ffffff"
       id="path3379" /><path
       d="m 97.653172,18.437271 q 0,0.950672 -0.691398,1.64207 -0.662589,0.662589 -1.613261,0.662589 l -13.539871,0 q -0.950672,0 -1.64207,-0.662589 -0.662589,-0.691398 -0.662589,-1.64207 l 0,-3.456988 q 0,-0.48974 0.31689,-0.806631 0.345699,-0.345699 0.835439,-0.345699 l 4.609318,0 q 0.48974,0 0.806631,0.345699 0.345698,0.316891 0.345698,0.806631 l 0,2.304659 q 0,0.48974 0.316891,0.835438 0.345699,0.316891 0.835439,0.316891 l 4.321235,0 q 0.489741,0 0.806631,-0.316891 0.345699,-0.345698 0.345699,-0.835438 l 0,-4.609318 q 0,-0.48974 -0.345699,-0.806631 -0.31689,-0.345699 -0.806631,-0.345699 l -10.082882,0 q -0.950672,0 -1.64207,-0.662589 -0.662589,-0.691398 -0.662589,-1.6420698 l 0,-6.9139769 q 0,-0.9506718 0.662589,-1.6132613 Q 80.85797,-6.8664551e-7 81.808642,-6.8664551e-7 l 13.539871,0 q 0.950672,0 1.613261,0.69139768664551 0.691398,0.6625895 0.691398,1.6132613 l 0,3.4569884 q 0,0.4897401 -0.345699,0.8354389 -0.316891,0.3168906 -0.806631,0.3168906 l -2.304659,0 q -0.48974,0 -0.835438,-0.3168906 -0.316891,-0.3456988 -0.316891,-0.8354389 l 0,-2.3046589 q 0,-0.4897401 -0.345699,-0.8066307 -0.31689,-0.3456988 -0.806631,-0.3456988 l -4.321235,0 q -0.48974,0 -0.835439,0.3456988 -0.316891,0.3168906 -0.316891,0.8066307 l 0,4.6093179 q 0,0.48974 0.316891,0.8354389 0.345699,0.3168906 0.835439,0.3168906 l 7.778224,0 q 0.950672,0 1.613261,0.6913977 0.691398,0.6625891 0.691398,1.6132611 l 0,6.913977 z"
       style="font-style:normal;font-variant:normal;font-weight:normal;font-stretch:normal;font-family:'Black Wolf';-inkscape-font-specification:'Black Wolf';fill:#ffffff"
       id="path3381" /><path
       d="m 126.74274,19.589601 q 0,0.48974 -0.3457,0.835438 -0.31689,0.316891 -0.80663,0.316891 l -2.30466,0 q -0.48974,0 -0.83544,-0.316891 -0.31689,-0.345698 -0.31689,-0.835438 l 0,-6.913977 q 0,-0.48974 -0.3457,-0.806631 -0.31689,-0.345699 -0.80663,-0.345699 l -4.32123,0 q -0.48974,0 -0.83544,0.345699 -0.31689,0.316891 -0.31689,0.806631 l 0,6.913977 q 0,0.48974 -0.3457,0.835438 -0.31689,0.316891 -0.80663,0.316891 l -4.60932,0 q -0.48974,0 -0.83544,-0.316891 -0.31689,-0.345698 -0.31689,-0.835438 l 0,-18.4372722 q 0,-0.48974003 0.31689,-0.80663064 Q 109.25614,-6.8664551e-7 109.74588,-6.8664551e-7 l 4.60932,0 q 0.48974,0 0.80663,0.34569884664551 0.3457,0.31689061 0.3457,0.80663064 l 0,6.9139769 q 0,0.48974 0.31689,0.8354389 0.3457,0.3168906 0.83544,0.3168906 l 4.32123,0 q 0.48974,0 0.80663,-0.3168906 0.3457,-0.3456989 0.3457,-0.8354389 l 0,-6.9139769 q 0,-0.48974003 0.31689,-0.80663064 Q 122.79601,-6.8664551e-7 123.28575,-6.8664551e-7 l 2.30466,0 q 0.48974,0 0.80663,0.34569884664551 0.3457,0.31689061 0.3457,0.80663064 l 0,18.4372722 z"
       style="font-style:normal;font-variant:normal;font-weight:normal;font-stretch:normal;font-family:'Black Wolf';-inkscape-font-specification:'Black Wolf';fill:#ffffff"
       id="path3383" /><path
       d="m 146.60466,19.589601 q 0,0.48974 -0.34569,0.835438 -0.3169,0.316891 -0.80664,0.316891 l -2.30465,0 q -0.48974,0 -0.83544,-0.316891 -0.31689,-0.345698 -0.31689,-0.835438 l 0,-6.913977 q 0,-0.48974 -0.3457,-0.806631 -0.31689,-0.345699 -0.80663,-0.345699 l -4.32124,0 q -0.48974,0 -0.83544,0.345699 -0.31689,0.316891 -0.31689,0.806631 l 0,6.913977 q 0,0.48974 -0.3457,0.835438 -0.31689,0.316891 -0.80663,0.316891 l -4.60932,0 q -0.48974,0 -0.83543,-0.316891 -0.3169,-0.345698 -0.3169,-0.835438 l 0,-18.4372722 q 0,-0.48974003 0.3169,-0.80663064 Q 129.11806,-6.8664551e-7 129.6078,-6.8664551e-7 l 14.69221,0 q 0.95067,0 1.61326,0.69139768664551 0.69139,0.6625895 0.69139,1.6132613 l 0,17.2849427 z m -4.60931,-11.5232953 0,-4.6093179 q 0,-0.4897401 -0.3457,-0.8066307 -0.31689,-0.3456988 -0.80663,-0.3456988 l -4.32124,0 q -0.48974,0 -0.83544,0.3456988 -0.31689,0.3168906 -0.31689,0.8066307 l 0,4.6093179 q 0,0.48974 0.31689,0.8354389 0.3457,0.3168906 0.83544,0.3168906 l 4.32124,0 q 0.48974,0 0.80663,-0.3168906 0.3457,-0.3456989 0.3457,-0.8354389 z"
       style="font-style:normal;font-variant:normal;font-weight:normal;font-stretch:normal;font-family:'Black Wolf';-inkscape-font-specification:'Black Wolf';fill:#ffffff"
       id="path3385" /><path
       d="m 166.4666,19.589601 q 0,0.48974 -0.3457,0.835438 -0.31689,0.316891 -0.80663,0.316891 l -2.30466,0 q -0.48974,0 -0.83543,-0.316891 -0.3169,-0.345698 -0.3169,-0.835438 l 0,-16.1326132 q 0,-0.4897401 -0.34569,-0.8066307 -0.31689,-0.3456988 -0.80663,-0.3456988 l -4.32124,0 q -0.48974,0 -0.83544,0.3456988 -0.31689,0.3168906 -0.31689,0.8066307 l 0,16.1326132 q 0,0.48974 -0.3457,0.835438 -0.31689,0.316891 -0.80663,0.316891 l -4.60932,0 q -0.48974,0 -0.83544,-0.316891 -0.31689,-0.345698 -0.31689,-0.835438 l 0,-18.4372722 q 0,-0.48974003 0.31689,-0.80663064 Q 148.98,-6.8664551e-7 149.46974,-6.8664551e-7 l 14.6922,0 q 0.95068,0 1.61327,0.69139768664551 0.69139,0.6625895 0.69139,1.6132613 l 0,17.2849427 z"
       style="font-style:normal;font-variant:normal;font-weight:normal;font-stretch:normal;font-family:'Black Wolf';-inkscape-font-specification:'Black Wolf';fill:#ffffff"
       id="path3387" /><path
       d="m 186.32853,19.589601 q 0,0.48974 -0.3457,0.835438 -0.31689,0.316891 -0.80663,0.316891 l -15.84453,0 q -0.48974,0 -0.83544,-0.316891 -0.31689,-0.345698 -0.31689,-0.835438 l 0,-18.4372722 q 0,-0.48974003 0.31689,-0.80663064 Q 168.84193,-6.8664551e-7 169.33167,-6.8664551e-7 l 14.6922,0 q 0.95067,0 1.61326,0.69139768664551 0.6914,0.6625895 0.6914,1.6132613 l 0,3.4569884 q 0,0.4897401 -0.3457,0.8354389 -0.31689,0.3168906 -0.80663,0.3168906 l -2.30466,0 q -0.48974,0 -0.83544,-0.3168906 -0.31689,-0.3456988 -0.31689,-0.8354389 l 0,-2.3046589 q 0,-0.4897401 -0.3457,-0.8066307 -0.31689,-0.3456988 -0.80663,-0.3456988 l -4.32124,0 q -0.48974,0 -0.83544,0.3456988 -0.31689,0.3168906 -0.31689,0.8066307 l 0,13.8279542 q 0,0.48974 0.31689,0.835438 0.3457,0.316891 0.83544,0.316891 l 4.32124,0 q 0.48974,0 0.80663,-0.316891 0.3457,-0.345698 0.3457,-0.835438 l 0,-4.609318 q 0,-0.48974 -0.3457,-0.806631 -0.31689,-0.345699 -0.80663,-0.345699 l -3.16891,0 q -0.48974,0 -0.83544,-0.31689 -0.31689,-0.345699 -0.31689,-0.835439 0,-0.4897404 0.31689,-0.806631 0.3457,-0.3456988 0.83544,-0.3456988 l 6.6259,0 q 0.95067,0 1.61326,0.6913977 0.6914,0.6625891 0.6914,1.6132611 l 0,8.066307 z"
       style="font-style:normal;font-variant:normal;font-weight:normal;font-stretch:normal;font-family:'Black Wolf';-inkscape-font-specification:'Black Wolf';fill:#ffffff"
       id="path3389" /><path
       d="m 206.19045,18.437271 q 0,0.950672 -0.6914,1.64207 -0.66259,0.662589 -1.61326,0.662589 l -13.53987,0 q -0.95067,0 -1.64207,-0.662589 -0.66259,-0.691398 -0.66259,-1.64207 l 0,-16.1326127 q 0,-0.9506718 0.66259,-1.6132613 Q 189.39525,-6.8664551e-7 190.34592,-6.8664551e-7 l 13.53987,0 q 0.95067,0 1.61326,0.69139768664551 0.6914,0.6625895 0.6914,1.6132613 l 0,16.1326127 z m -4.60932,-2.304659 0,-11.5232948 q 0,-0.9506718 -0.6914,-1.6132612 -0.66259,-0.6913977 -1.61326,-0.6913977 l -2.01657,0 q -0.95068,0 -1.64207,0.6913977 -0.66259,0.6625894 -0.66259,1.6132612 l 0,11.5232948 q 0,0.950672 0.66259,1.64207 0.69139,0.662589 1.64207,0.662589 l 2.01657,0 q 0.95067,0 1.61326,-0.662589 0.6914,-0.691398 0.6914,-1.64207 z"
       style="font-style:normal;font-variant:normal;font-weight:normal;font-stretch:normal;font-family:'Black Wolf';-inkscape-font-specification:'Black Wolf';fill:#ffffff"
       id="path3391" /><path
       d="m 226.05239,18.437271 q 0,0.950672 -0.6914,1.64207 -0.66259,0.662589 -1.61326,0.662589 l -14.6922,0 q -0.48974,0 -0.83544,-0.316891 -0.31689,-0.345698 -0.31689,-0.835438 l 0,-18.4372722 q 0,-0.48974003 0.31689,-0.80663064 Q 208.56579,-6.8664551e-7 209.05553,-6.8664551e-7 l 4.60932,0 q 0.48974,0 0.80663,0.34569884664551 0.3457,0.31689061 0.3457,0.80663064 l 0,16.1326132 q 0,0.48974 0.31689,0.835438 0.34569,0.316891 0.83543,0.316891 l 4.32124,0 q 0.48974,0 0.80663,-0.316891 0.3457,-0.345698 0.3457,-0.835438 l 0,-16.1326132 q 0,-0.48974003 0.31689,-0.80663064 Q 222.10566,-6.8664551e-7 222.5954,-6.8664551e-7 l 2.30466,0 q 0.48974,0 0.80663,0.34569884664551 0.3457,0.31689061 0.3457,0.80663064 l 0,17.2849422 z"
       style="font-style:normal;font-variant:normal;font-weight:normal;font-stretch:normal;font-family:'Black Wolf';-inkscape-font-specification:'Black Wolf';fill:#ffffff"
       id="path3393" /><path
       d="m 245.91431,1.1523288 q 0,0.48974 -0.3457,0.8354389 -0.31689,0.3168906 -0.80663,0.3168906 l -5.47356,0 q -0.48974,0 -0.83544,0.3456988 -0.31689,0.3168906 -0.31689,0.8066307 l 0,16.1326132 q 0,0.48974 -0.3457,0.835438 -0.31689,0.316891 -0.80663,0.316891 l -4.60932,0 q -0.48974,0 -0.83544,-0.316891 -0.31689,-0.345698 -0.31689,-0.835438 l 0,-16.1326132 q 0,-0.4897401 -0.3457,-0.8066307 -0.31689,-0.3456988 -0.80663,-0.3456988 l -1.15233,0 q -0.48974,0 -0.83544,-0.3168906 -0.31689,-0.3456989 -0.31689,-0.8354389 0,-0.48974003 0.31689,-0.80663064 Q 228.42771,-6.8664551e-7 228.91745,-6.8664551e-7 l 15.84453,0 q 0.48974,0 0.80663,0.34569884664551 0.3457,0.31689061 0.3457,0.80663064 z"
       style="font-style:normal;font-variant:normal;font-weight:normal;font-stretch:normal;font-family:'Black Wolf';-inkscape-font-specification:'Black Wolf';fill:#ffffff"
       id="path3395" /></g></svg>